<svg xmlns="http://www.w3.org/2000/svg" width="24" height="24" fill="none" viewBox="0 0 24 24"><path fill="#008096" fill-rule="evenodd" d="M15.9079 20.5764C15.7154 20.3797 15.5429 20.1694 15.3904 19.9492L13.1016 17.0309L14.2259 15.5963L17.0506 19.197L17.1472 19.3053C18.3134 20.5017 20.2069 20.5017 21.3732 19.3053C22.54 18.1088 22.5397 16.1659 21.3732 14.9697C20.2069 13.7726 18.3134 13.7726 17.1472 14.9697C16.918 15.2048 16.7338 15.4686 16.5947 15.7496L15.432 14.2676C15.574 14.0687 15.7326 13.8783 15.9079 13.6983C17.759 11.7999 20.7617 11.7999 22.6127 13.6983C24.4635 15.5969 24.4632 18.6776 22.6127 20.5764C20.7617 22.4746 17.759 22.4746 15.9079 20.5764ZM15.3899 19.948C15.3899 19.9486 15.3901 19.9488 15.3904 19.9492L15.3899 19.948Z" clip-rule="evenodd"/><path fill="#005D77" fill-rule="evenodd" d="M11.9698 3C10.7564 3 9.54298 3.47458 8.61745 4.42382C6.85895 6.22775 6.77141 9.09965 8.35478 11.0101L9.72587 12.7612L10.8496 11.3254L9.73658 9.90042C8.69196 8.69682 8.73177 6.84866 9.8567 5.69487C11.0229 4.49813 12.9164 4.49813 14.0827 5.69487C15.2242 6.86597 15.2487 8.75262 14.1549 9.95385L7.15801 18.8795L6.85314 19.2429C5.68689 20.4394 3.79341 20.4394 2.62717 19.2429C1.46061 18.0464 1.46061 16.1035 2.62717 14.9073C3.79341 13.7106 5.68689 13.7106 6.85314 14.9073C7.0832 15.1439 7.26827 15.4095 7.40758 15.6926L8.57094 14.2088C8.42813 14.0086 8.26864 13.8171 8.09239 13.6363C6.24134 11.7378 3.23869 11.7378 1.38764 13.6363C-0.462546 15.5345 -0.462546 18.6152 1.38764 20.514C3.23869 22.4122 6.24134 22.4122 8.09239 20.514L8.52003 20.0115L15.5079 11.1001C17.1704 9.19085 17.109 6.25673 15.3223 4.42382C14.3968 3.47458 13.1833 3 11.9698 3ZM11.9052 6.49641C11.588 6.49641 11.2708 6.6204 11.0289 6.86845C10.5453 7.36454 10.5453 8.1699 11.0289 8.666C11.5127 9.16216 12.2978 9.16216 12.7814 8.666C13.2652 8.1699 13.2652 7.36454 12.7814 6.86845C12.5396 6.6204 12.2224 6.49641 11.9052 6.49641ZM4.74423 15.7087C4.42701 15.7087 4.10973 15.8328 3.86789 16.0808C3.3842 16.5769 3.3842 17.3822 3.86789 17.8783C4.35157 18.3744 5.13679 18.3744 5.62048 17.8783C6.10416 17.3822 6.10416 16.5769 5.62048 16.0808C5.37863 15.8328 5.06144 15.7087 4.74423 15.7087ZM19.1345 15.7087C18.8173 15.7087 18.5001 15.8328 18.2583 16.0808C17.7746 16.5769 17.7746 17.3822 18.2583 17.8783C18.742 18.3744 19.5271 18.3744 20.0108 17.8783C20.4945 17.3822 20.4945 16.5769 20.0108 16.0808C19.7689 15.8328 19.4518 15.7087 19.1345 15.7087Z" clip-rule="evenodd"/></svg>